# xmcd
#
# Track frame offsets: 
#        150
#        11075
#        23335
#        35345
#        48477
#        65670
#        79055
#        98542
#        119300
#        135777
#        148632
#        160377
#        171357
#        185480
#        200165
#        214677
#        232247
#        250112
#        262627
#        273597
#        291637
#        302815
#        315487
#
# Disc length: 4371 seconds
#
# Revision: 2
# Processed by: cddbd v1.4PL0 Copyright (c) Steve Scherf et al.
# Submitted via: ExactAudioCopy v0.90b3
#
DISCID=49111117
DTITLE=Johnny Cash - Come Along And Ride This Train - Disc 2
DYEAR=1900
DGENRE=Country
TTITLE0=Hiawatha's Vision
TTITLE1=The Road To Kaintuck
TTITLE2=Hammer And Nails (& The Statler Brothers)
TTITLE3=The Shifting Whispering Sands, Part 1
TTITLE4=The Ballad Of Boot Hill
TTITLE5=I Ride An Old Paint
TTITLE6=Hardin Wouldn't Run
TTITLE7=Mr. Garfield
TTITLE8=The Streets Of Laredo
TTITLE9=Johnny Reb
TTITLE10=A Letter From Home
TTITLE11=Bury Me Not On The Lone Prairie
TTITLE12=Mean As Hell
TTITLE13=Sam Hall
TTITLE14=25 Minutes To Go
TTITLE15=The Blizzard
TTITLE16=Sweet Betsy From Pike
TTITLE17=Green Grow The Lilacs
TTITLE18=Rodeo Hand
TTITLE19=Stampede
TTITLE20=The Shifting Whispering Sands, Part 2
TTITLE21=Remember The Alamo
TTITLE22=Reflections
EXTD=
EXTT0=
EXTT1=
EXTT2=
EXTT3=
EXTT4=
EXTT5=
EXTT6=
EXTT7=
EXTT8=
EXTT9=
EXTT10=
EXTT11=
EXTT12=
EXTT13=
EXTT14=
EXTT15=
EXTT16=
EXTT17=
EXTT18=
EXTT19=
EXTT20=
EXTT21=
EXTT22=
PLAYORDER=
